<svg xmlns="http://www.w3.org/2000/svg" width="22" height="19.25" viewBox="0 0 22 19.25">
  <path id="Icon_awesome-sliders-h" data-name="Icon awesome-sliders-h" d="M21.313,17.375H6.875v-.687A.69.69,0,0,0,6.188,16H4.813a.69.69,0,0,0-.687.688v.688H.688A.69.69,0,0,0,0,18.063v1.375a.69.69,0,0,0,.688.688H4.125v.688a.69.69,0,0,0,.688.688H6.188a.69.69,0,0,0,.688-.687v-.687H21.313A.69.69,0,0,0,22,19.438V18.063A.69.69,0,0,0,21.313,17.375Zm0-6.875H17.875V9.813a.69.69,0,0,0-.687-.687H15.813a.69.69,0,0,0-.687.688V10.5H.688A.69.69,0,0,0,0,11.188v1.375a.69.69,0,0,0,.688.688H15.125v.688a.69.69,0,0,0,.688.688h1.375a.69.69,0,0,0,.688-.687V13.25h3.438A.69.69,0,0,0,22,12.563V11.188A.69.69,0,0,0,21.313,10.5Zm0-6.875H12.375V2.938a.69.69,0,0,0-.687-.687H10.313a.69.69,0,0,0-.687.688v.688H.688A.69.69,0,0,0,0,4.313V5.688a.69.69,0,0,0,.688.688H9.625v.688a.69.69,0,0,0,.688.688h1.375a.69.69,0,0,0,.688-.687V6.375h8.938A.69.69,0,0,0,22,5.688V4.313A.69.69,0,0,0,21.313,3.625Z" transform="translate(0 -2.25)" fill="#fff"/>
</svg>
