<svg xmlns="http://www.w3.org/2000/svg" width="63.458" height="70.212" viewBox="0 0 63.458 70.212">
  <g id="Icon_feather-box" data-name="Icon feather-box" transform="translate(-1.96 -0.409)">
    <path id="패스_13" data-name="패스 13" d="M62.878,48.4V22.456a6.486,6.486,0,0,0-3.243-5.611L36.932,3.872a6.486,6.486,0,0,0-6.486,0L7.743,16.845A6.486,6.486,0,0,0,4.5,22.456V48.4a6.486,6.486,0,0,0,3.243,5.611l22.7,12.973a6.486,6.486,0,0,0,6.486,0l22.7-12.973A6.486,6.486,0,0,0,62.878,48.4Z" transform="translate(0 0)" fill="none" stroke="#000" stroke-linecap="round" stroke-linejoin="round" stroke-width="5"/>
    <path id="패스_14" data-name="패스 14" d="M4.905,10.44,33.218,26.818,61.532,10.44" transform="translate(0.471 8.643)" fill="none" stroke="#000" stroke-linecap="round" stroke-linejoin="round" stroke-width="5"/>
    <path id="패스_15" data-name="패스 15" d="M18,50.692V18" transform="translate(15.689 17.429)" fill="none" stroke="#000" stroke-linecap="round" stroke-linejoin="round" stroke-width="5"/>
  </g>
</svg>
