<svg xmlns="http://www.w3.org/2000/svg" width="16.4" height="16.403" viewBox="0 0 16.4 16.403">
  <defs>
    <style>
      .cls-1 {
        fill: #010101;
      }
    </style>
  </defs>
  <path id="Icon_awesome-search" data-name="Icon awesome-search" class="cls-1" d="M16.177,14.181l-3.194-3.194a.768.768,0,0,0-.545-.224h-.522a6.66,6.66,0,1,0-1.153,1.153v.522a.768.768,0,0,0,.224.545l3.194,3.194a.766.766,0,0,0,1.086,0l.907-.907a.772.772,0,0,0,0-1.089ZM6.663,10.763a4.1,4.1,0,1,1,4.1-4.1A4.1,4.1,0,0,1,6.663,10.763Z"/>
</svg>
