<svg xmlns="http://www.w3.org/2000/svg" width="21.817" height="17.73" viewBox="0 0 21.817 17.73">
  <path id="Icon_metro-twitter" data-name="Icon metro-twitter" d="M24.387,6.916a8.949,8.949,0,0,1-2.571.7,4.489,4.489,0,0,0,1.968-2.476,8.961,8.961,0,0,1-2.842,1.086,4.48,4.48,0,0,0-7.627,4.082A12.707,12.707,0,0,1,4.09,5.637a4.481,4.481,0,0,0,1.385,5.976,4.458,4.458,0,0,1-2.027-.56c0,.019,0,.037,0,.056A4.479,4.479,0,0,0,7.037,15.5a4.483,4.483,0,0,1-2.021.077A4.48,4.48,0,0,0,9.2,18.683,8.98,8.98,0,0,1,3.638,20.6a9.078,9.078,0,0,1-1.068-.063,12.669,12.669,0,0,0,6.861,2.011A12.648,12.648,0,0,0,22.167,9.812q0-.291-.013-.579a9.093,9.093,0,0,0,2.234-2.317Z" transform="translate(-2.571 -4.817)" fill="#fff"/>
</svg>
