<svg xmlns="http://www.w3.org/2000/svg" width="19.894" height="19.894" viewBox="0 0 19.894 19.894">
  <path id="Icon_metro-instagram" data-name="Icon metro-instagram" d="M19.162,1.928H5.873a3.312,3.312,0,0,0-3.3,3.3V18.519a3.312,3.312,0,0,0,3.3,3.3H19.162a3.312,3.312,0,0,0,3.3-3.3V5.231A3.312,3.312,0,0,0,19.162,1.928Zm-10.223,8.7H16.1a3.788,3.788,0,1,1-7.157,0Zm11.039,0v7.459a1.247,1.247,0,0,1-1.243,1.243H6.3a1.247,1.247,0,0,1-1.243-1.243v-7.46H7a5.653,5.653,0,1,0,11.031,0h1.945Zm0-4.353a.624.624,0,0,1-.622.622H18.113a.624.624,0,0,1-.622-.622V5.036a.624.624,0,0,1,.622-.622h1.243a.624.624,0,0,1,.622.622Z" transform="translate(-2.571 -1.928)" fill="#fff"/>
</svg>
