<?xml version="1.0" encoding="utf-8"?>
<!-- Generator: Adobe Illustrator 16.0.0, SVG Export Plug-In . SVG Version: 6.00 Build 0)  -->
<!DOCTYPE svg PUBLIC "-//W3C//DTD SVG 1.1//EN" "http://www.w3.org/Graphics/SVG/1.1/DTD/svg11.dtd">
<svg version="1.1" id="레이어_1" xmlns="http://www.w3.org/2000/svg" xmlns:xlink="http://www.w3.org/1999/xlink" x="0px"
	 y="0px" width="228px" height="50px" viewBox="0 0 228 50" enable-background="new 0 0 228 50" xml:space="preserve">
<g>
	<path d="M34.05,2.55c0.331-0.059,0.61,0.023,0.835,0.249s0.323,0.504,0.293,0.835c-0.061,0.783-0.098,1.655-0.112,2.619
		c-0.016,0.963-0.023,2.062-0.023,3.294V46.43c0,0.24-0.09,0.451-0.271,0.632s-0.391,0.271-0.632,0.271h-6.636
		c-0.241,0-0.451-0.09-0.631-0.271s-0.271-0.392-0.271-0.632V24.265h-2.257c-0.031,0.993-0.112,2.062-0.249,3.205
		c-0.135,1.145-0.376,2.287-0.722,3.431c-0.347,1.145-0.806,2.234-1.377,3.272c-0.572,1.038-1.287,1.957-2.144,2.754
		c-0.858,0.797-1.896,1.438-3.115,1.918c-1.219,0.481-2.641,0.724-4.267,0.724c-1.686,0-3.152-0.265-4.401-0.791
		c-1.249-0.525-2.317-1.22-3.206-2.075c-0.888-0.858-1.61-1.844-2.167-2.958S1.706,31.48,1.39,30.291s-0.535-2.37-0.655-3.543
		c-0.121-1.175-0.181-2.258-0.181-3.251c0-0.993,0.06-2.076,0.181-3.25c0.12-1.173,0.339-2.355,0.655-3.544
		c0.316-1.188,0.751-2.339,1.309-3.453s1.279-2.099,2.167-2.957c0.888-0.857,1.957-1.549,3.206-2.077
		c1.249-0.526,2.715-0.79,4.401-0.79c2.348,0,4.274,0.481,5.779,1.444c1.504,0.963,2.693,2.167,3.566,3.612s1.49,3.024,1.852,4.74
		c0.361,1.716,0.571,3.312,0.632,4.786h2.302V11.804c0-1.685-0.091-3.009-0.271-3.972c-0.18-0.963-0.617-1.564-1.309-1.806
		C24.54,5.876,24.3,5.605,24.3,5.214V4.673c0-0.512,0.255-0.797,0.768-0.858L34.05,2.55z M10.938,9.954
		c-0.542,0.03-0.965,0.354-1.265,0.97c-0.301,0.617-0.504,1.393-0.61,2.325c-0.105,0.933-0.15,1.949-0.135,3.047
		c0.015,1.099,0.068,2.152,0.158,3.16c0.091,1.008,0.181,1.904,0.271,2.686c0.09,0.783,0.15,1.309,0.18,1.581
		c0.061,0.542,0.143,1.257,0.249,2.143c0.104,0.889,0.24,1.837,0.406,2.844c0.165,1.009,0.369,2.025,0.609,3.049
		c0.241,1.023,0.52,1.94,0.835,2.753c0.315,0.813,0.669,1.468,1.062,1.963c0.39,0.498,0.842,0.731,1.354,0.701
		c0.572-0.031,1-0.362,1.287-0.993c0.286-0.633,0.481-1.415,0.587-2.349c0.105-0.933,0.142-1.948,0.113-3.047
		c-0.03-1.097-0.083-2.159-0.157-3.182c-0.077-1.024-0.167-1.927-0.271-2.708c-0.106-0.783-0.174-1.31-0.203-1.581
		c-0.03-0.299-0.083-0.842-0.159-1.625c-0.075-0.782-0.188-1.677-0.338-2.686c-0.151-1.008-0.339-2.053-0.564-3.137
		c-0.226-1.083-0.497-2.069-0.813-2.958c-0.316-0.887-0.692-1.61-1.129-2.167C11.968,10.188,11.479,9.924,10.938,9.954z
		 M44.568,2.595c0.331-0.059,0.617,0.016,0.859,0.226c0.24,0.211,0.345,0.497,0.315,0.858c-0.061,0.783-0.106,1.655-0.135,2.618
		c-0.031,0.963-0.045,2.047-0.045,3.25v37.017c0,0.241-0.09,0.451-0.271,0.632c-0.18,0.181-0.391,0.271-0.632,0.271h-6.727
		c-0.241,0-0.451-0.091-0.631-0.271s-0.271-0.391-0.271-0.632v-34.76c0-1.685-0.016-3.009-0.045-3.972
		c-0.031-0.963-0.226-1.564-0.587-1.806c-0.121-0.059-0.211-0.12-0.271-0.18c-0.061-0.061-0.09-0.165-0.09-0.316V4.673
		c0-0.512,0.255-0.813,0.767-0.903L44.568,2.595z"/>
	<path d="M92.69,40.709c0.241,0,0.451,0.091,0.632,0.271c0.181,0.181,0.271,0.392,0.271,0.633v0.451c0,0.241-0.09,0.452-0.271,0.633
		s-0.391,0.271-0.632,0.271H48.812c-0.241,0-0.451-0.091-0.632-0.271c-0.18-0.181-0.271-0.392-0.271-0.633v-0.451
		c0-0.241,0.09-0.452,0.271-0.633c0.181-0.18,0.391-0.271,0.632-0.271H92.69z M87.138,7.033c0.241,0,0.452,0.09,0.632,0.271
		c0.181,0.181,0.271,0.391,0.271,0.632v21.578c0,0.242-0.09,0.451-0.271,0.632c-0.18,0.182-0.391,0.272-0.632,0.272H54.365
		c-0.241,0-0.452-0.091-0.633-0.272c-0.181-0.181-0.271-0.39-0.271-0.632V7.936c0-0.241,0.09-0.452,0.271-0.632
		c0.181-0.181,0.392-0.271,0.633-0.271h7.132c0.241,0,0.452,0.09,0.632,0.271S62.4,7.695,62.4,7.936v9.073h16.703V7.936
		c0-0.241,0.09-0.452,0.27-0.632c0.181-0.181,0.392-0.271,0.633-0.271H87.138z M79.103,19.267H62.4v8.893h16.703V19.267z"/>
	<path d="M134.222,2.55c0.331-0.059,0.609,0.023,0.835,0.249c0.225,0.226,0.322,0.504,0.293,0.835
		c-0.062,0.783-0.104,1.655-0.135,2.619c-0.031,0.963-0.046,2.062-0.046,3.294v37.017c0,0.241-0.09,0.451-0.271,0.632
		c-0.181,0.181-0.391,0.271-0.631,0.271h-7.133c-0.24,0-0.451-0.091-0.632-0.271s-0.271-0.391-0.271-0.632v-9.298
		c-1.114,0.601-2.273,1.083-3.477,1.443c-1.204,0.361-2.378,0.542-3.521,0.542H96.844c-0.241,0-0.452-0.091-0.632-0.271
		c-0.181-0.18-0.271-0.391-0.271-0.631V23.361c0-0.241,0.09-0.45,0.271-0.63c0.18-0.181,0.391-0.272,0.632-0.272h15.529
		c0.24,0,0.451-0.089,0.632-0.27c0.18-0.181,0.271-0.392,0.271-0.633V10.992c0-0.241-0.09-0.452-0.271-0.631
		c-0.181-0.181-0.392-0.271-0.632-0.271H96.844c-0.241,0-0.452-0.09-0.632-0.271c-0.181-0.181-0.271-0.391-0.271-0.632V8.735
		c0-0.24,0.09-0.452,0.271-0.631c0.18-0.181,0.391-0.271,0.632-0.271h24.467c0.24,0,0.45,0.09,0.632,0.271
		c0.181,0.18,0.271,0.391,0.271,0.631v15.079c0,0.241-0.091,0.451-0.271,0.632c-0.182,0.181-0.392,0.271-0.632,0.271h-15.529
		c-0.241,0-0.452,0.09-0.632,0.27c-0.181,0.181-0.271,0.392-0.271,0.632v10.564c0,0.241,0.09,0.452,0.271,0.631
		c0.18,0.181,0.391,0.271,0.632,0.271h13.226c1.113,0,2.234-0.188,3.363-0.564c1.13-0.377,2.415-1.046,3.86-2.009V11.804
		c0-1.685-0.15-3.009-0.452-3.972c-0.302-0.963-0.843-1.564-1.626-1.806c-0.481-0.149-0.722-0.435-0.722-0.857V4.673
		c0-0.512,0.256-0.797,0.768-0.858L134.222,2.55z"/>
	<path d="M164.736,36.994v-6.906c-0.872,0.331-1.737,0.58-2.595,0.745c-0.857,0.166-1.723,0.248-2.596,0.248h-2.483v15.033
		c0,0.239-0.09,0.45-0.271,0.631c-0.18,0.181-0.392,0.271-0.632,0.271h-7.133c-0.241,0-0.45-0.09-0.631-0.271
		c-0.182-0.181-0.271-0.392-0.271-0.631V31.081h-8.216c-0.242,0-0.452-0.091-0.634-0.271c-0.18-0.181-0.27-0.391-0.27-0.632v-0.405
		c0-0.241,0.09-0.453,0.27-0.634c0.182-0.181,0.392-0.271,0.634-0.271h19.455c0.874,0,1.738-0.067,2.597-0.202
		c0.857-0.137,1.783-0.443,2.775-0.925V11.804c0-1.685-0.09-3.009-0.27-3.972c-0.181-0.963-0.618-1.564-1.309-1.806
		c-0.483-0.149-0.724-0.42-0.724-0.812V4.673c0-0.512,0.256-0.797,0.768-0.858l8.984-1.264c0.331-0.059,0.608,0.023,0.834,0.249
		s0.323,0.504,0.295,0.835c-0.063,0.783-0.099,1.655-0.114,2.619c-0.015,0.963-0.021,2.062-0.021,3.294V46.43
		c0,0.24-0.091,0.451-0.271,0.632c-0.182,0.181-0.391,0.271-0.632,0.271h-6.637c-0.241,0-0.451-0.09-0.633-0.271
		c-0.18-0.181-0.271-0.392-0.271-0.632v-7.629h-4.198c-0.239,0-0.45-0.083-0.631-0.248s-0.271-0.385-0.271-0.655
		s0.09-0.488,0.271-0.655c0.181-0.164,0.392-0.248,0.631-0.248H164.736z M154.807,6.975c0.602,0,0.902,0.301,0.902,0.902
		c0.028,1.174,0.15,2.521,0.36,4.041c0.212,1.52,0.564,3.024,1.062,4.514c0.496,1.489,1.173,2.859,2.031,4.108
		c0.858,1.249,1.964,2.174,3.318,2.775c0.331,0.181,0.496,0.438,0.496,0.769v0.451c0,0.331-0.121,0.595-0.361,0.79
		c-0.241,0.196-0.525,0.248-0.856,0.157c-2.35-0.541-4.358-1.384-6.026-2.527c-1.671-1.144-3.034-2.438-4.088-3.882
		c-0.27-0.361-0.54-0.376-0.812-0.045c-1.054,1.444-2.423,2.739-4.107,3.883c-1.687,1.144-3.702,2.001-6.049,2.572
		c-0.332,0.091-0.617,0.053-0.858-0.111c-0.24-0.166-0.361-0.415-0.361-0.745v-0.542c0-0.331,0.165-0.588,0.496-0.769
		c1.325-0.572,2.415-1.49,3.272-2.754c0.858-1.263,1.544-2.641,2.056-4.13c0.512-1.49,0.872-3.002,1.083-4.537
		c0.21-1.534,0.345-2.874,0.406-4.018c0-0.602,0.301-0.902,0.903-0.902H154.807z M182.704,2.595
		c0.331-0.059,0.616,0.016,0.857,0.226c0.241,0.211,0.346,0.497,0.315,0.858c-0.06,0.783-0.105,1.655-0.135,2.618
		c-0.029,0.963-0.045,2.047-0.045,3.25v37.017c0,0.241-0.091,0.451-0.271,0.632s-0.391,0.271-0.632,0.271h-6.726
		c-0.242,0-0.452-0.091-0.633-0.271s-0.27-0.391-0.27-0.632v-34.76c0-1.685-0.016-3.009-0.045-3.972
		c-0.031-0.963-0.228-1.564-0.589-1.806c-0.119-0.059-0.21-0.12-0.27-0.18c-0.062-0.061-0.09-0.165-0.09-0.316V4.673
		c0-0.512,0.254-0.813,0.767-0.903L182.704,2.595z"/>
	<path d="M226.312,2.55c0.33-0.059,0.608,0.023,0.836,0.249c0.226,0.226,0.323,0.504,0.292,0.835
		c-0.06,0.783-0.104,1.655-0.135,2.619c-0.029,0.963-0.046,2.062-0.046,3.294v37.017c0,0.241-0.09,0.451-0.271,0.632
		c-0.18,0.181-0.391,0.271-0.633,0.271h-7.131c-0.242,0-0.451-0.091-0.632-0.271s-0.271-0.391-0.271-0.632v-22.3H214.8
		c-0.029,0.993-0.127,2.069-0.293,3.227c-0.165,1.16-0.444,2.303-0.835,3.431c-0.393,1.129-0.911,2.213-1.558,3.251
		s-1.476,1.957-2.482,2.754c-1.009,0.797-2.204,1.438-3.589,1.918c-1.385,0.481-2.994,0.724-4.83,0.724
		c-1.958,0-3.65-0.257-5.079-0.768c-1.431-0.512-2.648-1.203-3.656-2.077c-1.009-0.872-1.835-1.857-2.484-2.957
		c-0.646-1.099-1.158-2.249-1.533-3.453c-0.377-1.203-0.633-2.393-0.769-3.565c-0.135-1.175-0.201-2.258-0.201-3.251
		c0-0.993,0.066-2.083,0.201-3.273c0.136-1.188,0.392-2.377,0.769-3.566c0.375-1.188,0.887-2.339,1.533-3.453
		c0.649-1.113,1.476-2.099,2.484-2.957c1.008-0.858,2.226-1.542,3.656-2.054c1.429-0.511,3.121-0.767,5.079-0.767
		c1.774,0,3.332,0.218,4.672,0.655c1.338,0.436,2.505,1.031,3.499,1.783c0.993,0.752,1.82,1.618,2.481,2.596
		c0.662,0.979,1.204,2.008,1.626,3.092s0.729,2.183,0.926,3.296c0.195,1.114,0.322,2.167,0.383,3.161h3.521V11.804
		c0-1.685-0.151-3.009-0.451-3.972c-0.301-0.963-0.843-1.564-1.625-1.806c-0.481-0.149-0.722-0.435-0.722-0.857V4.673
		c0-0.512,0.255-0.797,0.766-0.858L226.312,2.55z M199.633,9.729c-0.813,0.06-1.461,0.383-1.941,0.97
		c-0.481,0.588-0.852,1.326-1.106,2.212c-0.256,0.888-0.414,1.874-0.475,2.958c-0.059,1.083-0.074,2.137-0.044,3.16
		c0.029,1.023,0.081,1.972,0.157,2.843c0.075,0.873,0.144,1.535,0.203,1.987c0.061,0.452,0.142,1.114,0.248,1.987
		s0.256,1.821,0.452,2.844c0.196,1.023,0.442,2.062,0.745,3.114c0.3,1.054,0.678,2.009,1.129,2.867
		c0.45,0.858,0.985,1.543,1.602,2.054c0.617,0.512,1.332,0.739,2.145,0.678s1.46-0.384,1.941-0.972
		c0.48-0.586,0.85-1.331,1.106-2.234c0.255-0.903,0.413-1.896,0.475-2.979c0.059-1.084,0.067-2.145,0.021-3.184
		c-0.045-1.037-0.113-1.986-0.203-2.843c-0.091-0.858-0.165-1.527-0.226-2.01c-0.062-0.45-0.136-1.113-0.227-1.986
		c-0.09-0.873-0.225-1.812-0.405-2.821c-0.181-1.008-0.423-2.038-0.723-3.092c-0.301-1.054-0.678-2.001-1.128-2.844
		c-0.453-0.842-0.986-1.52-1.603-2.031C201.16,9.894,200.444,9.668,199.633,9.729z"/>
</g>
</svg>
